{"glyphs":{":":{"x_min":0,"x_max":278,"ha":278,"o":"m 210 0 l 210 142 l 68 142 l 68 0 z m 210 300 l 210 442 l 68 442 l 68 300 z"},"$":{"x_min":0,"x_max":556,"ha":556,"o":"m 19 127 b 68 61 163 1 232 1 l 232 -114 l 310 -114 l 310 0 b 427 3 522 79 522 200 b 522 335 422 388 310 428 l 310 612 b 357 607 393 576 422 541 l 500 616 b 454 667 394 708 310 722 l 310 786 l 232 786 l 232 722 b 122 717 32 647 32 529 b 32 416 128 348 232 318 l 232 112 b 181 122 136 162 105 205 z m 232 450 b 188 463 146 495 146 539 b 146 589 186 617 232 618 z m 310 295 b 357 274 400 255 400 196 b 400 145 362 110 310 110 z"},"?":{"x_min":0,"x_max":444,"ha":444,"o":"m 125 542 b 128 586 168 630 209 630 b 241 630 272 606 272 572 b 272 514 144 386 144 338 l 144 240 l 254 240 l 254 290 b 254 330 290 375 326 422 b 362 468 398 516 398 562 b 398 673 306 732 211 732 b 109 732 35 673 10 574 z m 270 0 l 270 142 l 128 142 l 128 0 z"},"<":{"x_min":0,"x_max":600,"ha":600,"o":"m 572 108 l 183 272 l 572 436 l 572 553 l 28 320 l 28 224 l 572 -9 z"},"'":{"x_min":0,"x_max":222,"ha":222,"o":"m 56 452 l 166 452 l 166 722 l 56 722 z"},"=":{"x_min":0,"x_max":600,"ha":600,"o":"m 572 455 l 28 455 l 28 333 l 572 333 z m 572 211 l 28 211 l 28 89 l 572 89 z"},"a":{"x_min":0,"x_max":500,"ha":500,"o":"m 174 385 b 174 424 206 452 244 452 b 280 452 309 434 309 387 l 309 347 b 152 300 32 246 32 120 b 32 32 81 -10 157 -10 b 220 -10 270 16 307 53 b 311 31 313 14 316 0 l 442 0 b 438 14 435 29 435 44 l 435 389 b 435 486 384 554 250 554 b 200 554 151 542 115 515 b 78 488 53 446 48 385 z m 309 134 b 279 104 252 84 214 84 b 180 84 158 105 158 141 b 158 198 234 240 309 266 z"},"L":{"x_min":0,"x_max":444,"ha":444,"o":"m 422 0 l 422 122 l 200 122 l 200 722 l 62 722 l 62 0 z"},"3":{"x_min":0,"x_max":556,"ha":556,"o":"m 34 212 b 34 76 113 -10 275 -10 b 405 -10 510 62 510 205 b 510 286 483 349 406 379 b 463 408 493 473 493 536 b 493 664 399 732 269 732 b 148 732 50 667 49 534 l 181 534 b 183 583 219 618 268 618 b 328 618 361 581 361 531 b 361 464 325 438 232 438 l 232 324 b 332 323 378 292 378 211 b 378 149 341 104 273 104 b 199 104 166 138 166 212 z"},";":{"x_min":0,"x_max":278,"ha":278,"o":"m 77 -148 l 147 -148 l 210 0 l 210 142 l 68 142 l 68 0 l 128 0 z m 210 300 l 210 442 l 68 442 l 68 300 z"},"J":{"x_min":0,"x_max":333,"ha":333,"o":"m 125 722 l 125 181 b 125 129 110 112 47 112 b 35 112 24 114 10 115 l 10 -7 b 30 -9 48 -10 78 -10 b 198 -10 263 56 263 153 l 263 722 z"},"V":{"x_min":0,"x_max":556,"ha":556,"o":"m 200 0 l 357 0 l 541 722 l 406 722 l 280 206 l 278 206 l 151 722 l 15 722 z"},"\"":{"x_min":0,"x_max":333,"ha":333,"o":"m 199 452 l 309 452 l 309 722 l 199 722 z m 24 452 l 134 452 l 134 722 l 24 722 z"},"7":{"x_min":0,"x_max":556,"ha":556,"o":"m 30 608 l 347 608 l 147 0 l 291 0 l 486 656 l 486 722 l 30 722 z"},"S":{"x_min":0,"x_max":556,"ha":556,"o":"m 491 557 b 467 659 392 732 269 732 b 126 732 52 654 52 530 b 52 328 360 326 360 190 b 360 136 323 104 275 104 b 234 104 184 135 168 222 l 32 193 b 69 51 156 -10 268 -10 b 413 -10 498 72 498 196 b 498 422 190 430 190 539 b 190 588 217 618 266 618 b 314 618 344 589 367 521 z"},"}":{"x_min":0,"x_max":333,"ha":333,"o":"m 72 -84 l 151 -84 b 206 -84 266 -47 266 35 l 266 230 b 266 280 297 293 337 293 l 337 353 b 297 353 266 366 266 416 l 266 613 b 266 695 206 732 151 732 l 72 732 l 72 672 l 103 672 b 139 672 156 655 156 611 l 156 415 b 156 358 187 332 235 324 l 235 322 b 187 314 156 288 156 231 l 156 37 b 156 -7 139 -24 103 -24 l 72 -24 z"},"Z":{"x_min":0,"x_max":500,"ha":500,"o":"m 61 600 l 306 600 l 33 117 l 33 0 l 467 0 l 467 122 l 188 122 l 461 606 l 461 722 l 61 722 z"},"x":{"x_min":0,"x_max":444,"ha":444,"o":"m 155 280 l 6 0 l 140 0 l 222 176 l 304 0 l 438 0 l 291 279 l 429 544 l 295 544 l 222 388 l 151 544 l 17 544 z"},")":{"x_min":0,"x_max":333,"ha":333,"o":"m 147 -84 b 228 30 283 171 283 324 b 283 477 228 618 147 732 l 29 732 b 106 624 173 499 173 324 b 173 149 106 24 29 -84 z"},"&":{"x_min":0,"x_max":667,"ha":667,"o":"m 274 648 b 316 648 338 612 338 581 b 338 523 290 490 252 456 b 228 496 211 528 211 570 b 211 614 234 648 274 648 z m 507 363 b 493 313 468 269 442 222 b 395 267 352 316 313 369 b 380 422 452 476 452 569 b 452 660 380 732 282 732 b 184 732 97 676 97 552 b 97 492 118 447 156 390 b 84 343 34 290 34 190 b 34 58 130 -10 269 -10 b 340 -10 403 18 450 64 b 518 6 563 -10 632 -10 l 632 112 b 595 116 561 132 532 152 b 569 211 595 272 618 332 z m 172 208 b 172 250 193 274 224 298 b 266 244 313 192 368 144 b 348 121 312 104 275 104 b 222 104 172 138 172 208 z"},"_":{"x_min":0,"x_max":500,"ha":500,"o":"m 500 -125 l 500 -75 l 0 -75 l 0 -125 z"},"v":{"x_min":0,"x_max":444,"ha":444,"o":"m 138 544 l 12 544 l 160 0 l 284 0 l 432 544 l 306 544 l 223 194 l 221 194 z"},"O":{"x_min":0,"x_max":556,"ha":556,"o":"m 50 232 b 50 54 144 -10 278 -10 b 412 -10 506 54 506 232 l 506 490 b 506 668 412 732 278 732 b 144 732 50 668 50 490 z m 188 508 b 188 588 223 610 278 610 b 333 610 368 588 368 508 l 368 214 b 368 134 333 112 278 112 b 223 112 188 134 188 214 z"},"(":{"x_min":0,"x_max":333,"ha":333,"o":"m 304 -84 b 227 24 160 149 160 324 b 160 499 227 624 304 732 l 186 732 b 105 618 50 477 50 324 b 50 171 105 30 186 -84 z"},"C":{"x_min":0,"x_max":556,"ha":556,"o":"m 188 508 b 188 588 223 610 278 610 b 333 610 368 588 368 508 l 368 488 l 506 488 l 506 490 b 506 668 412 732 278 732 b 144 732 50 668 50 490 l 50 232 b 50 54 144 -10 278 -10 b 412 -10 506 54 506 232 l 506 262 l 368 262 l 368 214 b 368 134 333 112 278 112 b 223 112 188 134 188 214 z"},"W":{"x_min":0,"x_max":833,"ha":833,"o":"m 174 0 l 306 0 l 415 494 l 417 494 l 518 0 l 651 0 l 809 722 l 680 722 l 584 250 l 582 250 l 482 722 l 349 722 l 250 250 l 248 250 l 151 722 l 23 722 z"},"A":{"x_min":0,"x_max":556,"ha":556,"o":"m 278 566 l 280 566 l 347 274 l 210 274 z m 146 0 l 185 152 l 376 152 l 411 0 l 543 0 l 369 722 l 192 722 l 13 0 z"},"f":{"x_min":0,"x_max":278,"ha":278,"o":"m 270 726 b 249 729 228 732 210 732 b 118 732 65 698 65 572 l 65 520 l 8 520 l 8 418 l 65 418 l 65 0 l 191 0 l 191 418 l 266 418 l 266 520 l 191 520 l 191 576 b 191 603 204 622 234 622 l 270 622 z"},"Q":{"x_min":0,"x_max":556,"ha":556,"o":"m 549 67 b 519 68 496 77 477 91 b 496 127 506 173 506 232 l 506 490 b 506 668 412 732 278 732 b 144 732 50 668 50 490 l 50 232 b 50 54 144 -10 278 -10 b 326 -10 368 -2 404 18 b 438 -22 482 -53 549 -53 z m 269 180 b 292 172 311 150 330 123 b 316 115 299 112 278 112 b 223 112 188 134 188 214 l 188 508 b 188 588 223 610 278 610 b 333 610 368 588 368 508 l 368 234 l 366 234 b 343 268 314 294 269 300 z"},"w":{"x_min":0,"x_max":667,"ha":667,"o":"m 143 0 l 261 0 l 328 340 l 330 340 l 407 0 l 525 0 l 653 544 l 535 544 l 466 204 l 464 204 l 387 544 l 279 544 l 206 204 l 204 204 l 131 544 l 13 544 z"},"-":{"x_min":0,"x_max":333,"ha":333,"o":"m 289 217 l 289 327 l 43 327 l 43 217 z"},"E":{"x_min":0,"x_max":500,"ha":500,"o":"m 450 0 l 450 122 l 200 122 l 200 312 l 383 312 l 383 434 l 200 434 l 200 600 l 440 600 l 440 722 l 62 722 l 62 0 z"},"s":{"x_min":0,"x_max":444,"ha":444,"o":"m 404 418 b 373 500 308 554 214 554 b 125 554 42 505 42 402 b 42 219 288 244 288 140 b 288 110 265 92 227 92 b 177 92 146 125 135 176 l 22 145 b 83 9 151 -10 227 -10 b 332 -10 408 47 408 155 b 408 317 162 319 162 403 b 162 431 184 452 213 452 b 251 452 283 428 300 378 z"},">":{"x_min":0,"x_max":600,"ha":600,"o":"m 28 -9 l 572 224 l 572 320 l 28 553 l 28 436 l 417 272 l 28 108 z"},"l":{"x_min":0,"x_max":278,"ha":278,"o":"m 76 0 l 202 0 l 202 722 l 76 722 z"},"8":{"x_min":0,"x_max":556,"ha":556,"o":"m 388 209 b 388 147 359 104 278 104 b 197 104 168 147 168 209 b 168 276 211 320 278 320 b 345 320 388 276 388 209 z m 370 525 b 370 474 329 434 278 434 b 227 434 186 474 186 525 b 186 576 224 618 278 618 b 332 618 370 576 370 525 z m 520 205 b 520 286 492 349 415 379 b 472 408 502 473 502 536 b 502 670 403 732 278 732 b 153 732 54 670 54 536 b 54 473 84 408 141 379 b 64 349 36 286 36 205 b 36 62 141 -10 278 -10 b 415 -10 520 62 520 205 z"},"\\":{"x_min":0,"x_max":278,"ha":278,"o":"m 214 -10 l 336 -10 l 64 732 l -58 732 z"},"e":{"x_min":0,"x_max":500,"ha":500,"o":"m 450 242 l 450 369 b 450 480 367 554 250 554 b 130 554 50 480 50 361 l 50 183 b 50 64 130 -10 250 -10 b 377 -10 444 56 450 168 l 324 168 b 324 126 303 92 250 92 b 208 92 176 116 176 170 l 176 242 z m 176 344 l 176 374 b 176 422 199 452 250 452 b 301 452 324 422 324 374 l 324 344 z"},"b":{"x_min":0,"x_max":500,"ha":500,"o":"m 186 421 b 211 448 234 460 262 460 b 296 460 324 438 324 330 l 324 214 b 324 106 296 84 262 84 b 234 84 211 96 186 123 z m 176 0 l 176 66 l 178 66 b 200 32 256 -10 312 -10 b 410 -10 450 66 450 206 l 450 338 b 450 478 410 554 312 554 b 278 554 246 538 186 494 l 186 722 l 60 722 l 60 0 z"},"%":{"x_min":0,"x_max":889,"ha":889,"o":"m 214 722 b 113 722 34 640 34 542 b 34 444 113 362 214 362 b 315 362 394 444 394 542 b 394 640 315 722 214 722 z m 214 624 b 259 624 296 585 296 542 b 296 499 259 460 214 460 b 169 460 132 499 132 542 b 132 585 169 624 214 624 z m 675 360 b 574 360 495 278 495 180 b 495 82 574 0 675 0 b 776 0 855 82 855 180 b 855 278 776 360 675 360 z m 675 262 b 720 262 757 223 757 180 b 757 137 720 98 675 98 b 630 98 593 137 593 180 b 593 223 630 262 675 262 z m 197 -10 l 282 -10 l 697 732 l 612 732 z"},"m":{"x_min":0,"x_max":722,"ha":722,"o":"m 60 0 l 186 0 l 186 411 b 201 432 237 460 264 460 b 284 460 298 450 298 414 l 298 0 l 424 0 l 424 411 b 440 432 479 460 503 460 b 523 460 536 450 536 414 l 536 0 l 662 0 l 662 410 b 662 508 623 554 547 554 b 492 554 452 515 413 472 b 398 522 364 554 317 554 b 264 554 223 519 182 482 l 182 544 l 60 544 z"},"#":{"x_min":0,"x_max":556,"ha":556,"o":"m 506 300 l 420 300 l 438 422 l 536 422 l 536 516 l 450 516 l 478 722 l 382 722 l 353 516 l 254 516 l 282 722 l 186 722 l 157 516 l 51 516 l 51 422 l 145 422 l 127 300 l 20 300 l 20 206 l 114 206 l 86 0 l 182 0 l 211 206 l 310 206 l 282 0 l 378 0 l 407 206 l 506 206 z m 341 422 l 323 300 l 224 300 l 242 422 z"},",":{"x_min":0,"x_max":278,"ha":278,"o":"m 77 -148 l 147 -148 l 210 0 l 210 142 l 68 142 l 68 0 l 128 0 z"},"n":{"x_min":0,"x_max":500,"ha":500,"o":"m 186 0 l 186 411 b 213 435 242 460 268 460 b 302 460 314 436 314 400 l 314 0 l 440 0 l 440 414 b 440 515 400 554 323 554 b 271 554 228 522 182 482 l 182 544 l 60 544 l 60 0 z"},"h":{"x_min":0,"x_max":500,"ha":500,"o":"m 186 0 l 186 411 b 213 435 242 460 268 460 b 302 460 314 436 314 400 l 314 0 l 440 0 l 440 414 b 440 515 400 554 323 554 b 271 554 228 522 186 482 l 186 722 l 60 722 l 60 0 z"},"z":{"x_min":0,"x_max":444,"ha":444,"o":"m 51 434 l 258 434 l 31 108 l 31 0 l 413 0 l 413 110 l 182 110 l 413 436 l 413 544 l 51 544 z"},"B":{"x_min":0,"x_max":556,"ha":556,"o":"m 62 0 l 264 0 b 410 0 506 65 506 208 b 506 298 476 338 400 386 b 458 421 489 473 489 536 b 489 660 404 722 256 722 l 62 722 z m 200 322 l 248 322 b 320 322 368 288 368 219 b 368 156 330 114 258 114 l 200 114 z m 200 608 l 255 608 b 320 608 351 574 351 521 b 351 472 310 436 248 436 l 200 436 z"},"K":{"x_min":0,"x_max":556,"ha":556,"o":"m 200 0 l 200 221 l 254 303 l 398 0 l 553 0 l 346 431 l 532 722 l 381 722 l 202 424 l 200 424 l 200 722 l 62 722 l 62 0 z"},"R":{"x_min":0,"x_max":556,"ha":556,"o":"m 534 0 l 398 322 b 475 351 507 416 507 506 b 507 642 428 722 262 722 l 62 722 l 62 0 l 200 0 l 200 294 l 266 294 l 386 0 z m 200 608 l 271 608 b 332 608 369 578 369 508 b 369 438 332 408 271 408 l 200 408 z"},"T":{"x_min":0,"x_max":500,"ha":500,"o":"m 20 722 l 20 600 l 181 600 l 181 0 l 319 0 l 319 600 l 480 600 l 480 722 z"},"P":{"x_min":0,"x_max":556,"ha":556,"o":"m 208 0 l 208 290 l 269 290 b 439 290 522 370 522 506 b 522 642 439 722 269 722 l 70 722 l 70 0 z m 208 608 l 282 608 b 350 608 384 574 384 506 b 384 438 350 404 282 404 l 208 404 z"},"|":{"x_min":0,"x_max":222,"ha":222,"o":"m 50 -10 l 172 -10 l 172 732 l 50 732 z"},"t":{"x_min":0,"x_max":278,"ha":278,"o":"m 56 418 l 56 98 b 56 20 110 -10 192 -10 b 216 -10 240 -9 264 -5 l 264 101 b 256 100 248 100 239 100 b 205 100 182 113 182 140 l 182 418 l 263 418 l 263 520 l 182 520 l 182 668 l 56 668 l 56 520 l 6 520 l 6 418 z"},"M":{"x_min":0,"x_max":778,"ha":778,"o":"m 188 0 l 188 568 l 190 568 l 337 0 l 441 0 l 588 568 l 590 568 l 590 0 l 708 0 l 708 722 l 515 722 l 390 248 l 388 248 l 263 722 l 70 722 l 70 0 z"},"g":{"x_min":0,"x_max":500,"ha":500,"o":"m 292 347 b 292 252 274 232 220 232 b 182 232 160 266 160 334 b 160 419 178 452 226 452 b 270 452 292 417 292 347 z m 478 554 b 431 554 400 531 368 491 b 336 530 278 554 226 554 b 85 554 40 466 40 349 b 40 258 61 200 122 160 b 91 141 46 112 46 69 b 46 34 68 10 98 -8 b 68 -27 22 -52 22 -93 b 22 -154 96 -192 230 -192 b 376 -192 472 -148 472 -55 b 472 142 156 37 156 105 b 156 118 171 127 178 137 b 197 131 212 130 230 130 b 354 130 412 208 412 344 b 412 377 404 404 396 440 b 413 445 426 452 439 452 b 449 452 468 446 478 444 z m 306 -36 b 344 -39 352 -47 352 -65 b 352 -93 317 -108 257 -108 b 183 -108 142 -96 142 -68 b 142 -48 155 -37 168 -24 z"},"j":{"x_min":0,"x_max":278,"ha":278,"o":"m 76 544 l 76 -28 b 76 -62 56 -78 2 -78 l 2 -189 b 16 -191 32 -192 48 -192 b 132 -192 202 -148 202 -44 l 202 544 z m 202 638 l 202 752 l 76 752 l 76 638 z"},"i":{"x_min":0,"x_max":278,"ha":278,"o":"m 76 544 l 76 0 l 202 0 l 202 544 z m 202 638 l 202 752 l 76 752 l 76 638 z"},"y":{"x_min":0,"x_max":444,"ha":444,"o":"m 32 -190 b 46 -191 60 -192 72 -192 b 198 -192 249 -145 288 2 l 433 544 l 305 544 l 226 184 l 224 184 l 139 544 l 11 544 l 137 105 b 150 59 160 22 160 -10 b 160 -34 124 -82 69 -82 b 56 -82 44 -82 32 -80 z"},"@":{"x_min":0,"x_max":800,"ha":800,"o":"m 411 452 b 458 452 490 419 490 371 b 490 311 446 252 381 252 b 333 252 304 287 304 335 b 304 392 349 452 411 452 z m 518 492 b 490 535 448 554 399 554 b 274 554 194 438 194 318 b 194 224 268 142 354 142 b 390 142 429 167 454 195 l 456 194 b 457 160 482 142 510 142 b 572 142 763 210 763 430 b 763 614 593 732 417 732 b 208 732 37 571 37 360 b 37 146 211 -10 422 -10 b 545 -10 650 45 719 144 l 627 144 b 577 102 507 74 430 74 b 260 74 139 185 139 360 b 139 525 247 648 414 648 b 566 648 679 562 679 402 b 679 295 624 240 578 240 b 567 240 563 248 563 259 b 563 272 568 287 570 298 l 620 542 l 530 542 z"},".":{"x_min":0,"x_max":278,"ha":278,"o":"m 210 0 l 210 142 l 68 142 l 68 0 z"},"p":{"x_min":0,"x_max":500,"ha":500,"o":"m 186 421 b 211 448 234 460 262 460 b 296 460 324 438 324 330 l 324 214 b 324 106 296 84 262 84 b 234 84 211 96 186 123 z m 60 544 l 60 -192 l 186 -192 l 186 50 b 246 6 278 -10 312 -10 b 410 -10 450 66 450 206 l 450 338 b 450 478 410 554 312 554 b 256 554 200 512 178 478 l 176 478 l 176 544 z"},"X":{"x_min":0,"x_max":556,"ha":556,"o":"m 174 722 l 26 722 l 203 380 l 9 0 l 158 0 l 278 255 l 398 0 l 547 0 l 355 380 l 530 722 l 382 722 l 278 506 z"},"*":{"x_min":0,"x_max":500,"ha":500,"o":"m 200 722 l 229 577 l 225 572 l 92 640 l 66 551 l 212 533 l 214 527 l 108 423 l 183 366 l 247 500 l 253 500 l 317 366 l 392 423 l 286 527 l 288 533 l 434 551 l 408 640 l 275 572 l 271 577 l 300 722 z"},"Y":{"x_min":0,"x_max":556,"ha":556,"o":"m 159 722 l 12 722 l 209 292 l 209 0 l 347 0 l 347 292 l 544 722 l 397 722 l 280 431 z"},"c":{"x_min":0,"x_max":500,"ha":500,"o":"m 449 356 b 447 494 373 554 250 554 b 124 554 50 492 50 348 l 50 196 b 50 52 124 -10 250 -10 b 376 -10 450 52 450 196 l 450 198 l 324 198 l 324 164 b 324 122 294 100 250 100 b 206 100 176 122 176 164 l 176 380 b 176 422 206 444 250 444 b 294 444 324 422 324 380 l 324 356 z"},"!":{"x_min":0,"x_max":278,"ha":278,"o":"m 212 722 l 66 722 l 94 244 l 184 244 z m 210 0 l 210 142 l 68 142 l 68 0 z"},"/":{"x_min":0,"x_max":278,"ha":278,"o":"m 336 732 l 214 732 l -58 -10 l 64 -10 z"},"[":{"x_min":0,"x_max":333,"ha":333,"o":"m 284 -74 l 284 -14 l 160 -14 l 160 662 l 284 662 l 284 722 l 50 722 l 50 -74 z"},"6":{"x_min":0,"x_max":556,"ha":556,"o":"m 168 295 b 202 326 236 354 278 354 b 339 354 382 317 382 237 b 382 154 347 104 278 104 b 204 104 168 138 168 255 z m 501 533 b 491 663 403 732 278 732 b 122 732 36 636 36 482 l 36 240 b 36 86 122 -10 278 -10 b 442 -10 514 94 514 242 b 514 358 449 456 323 456 b 266 456 213 434 168 400 l 168 467 b 168 584 204 618 278 618 b 327 618 367 582 369 533 z"},"r":{"x_min":0,"x_max":333,"ha":333,"o":"m 186 0 l 186 372 b 186 401 207 432 248 432 b 270 432 294 424 315 418 l 315 554 b 252 554 214 526 185 472 l 183 472 l 183 544 l 60 544 l 60 0 z"},"2":{"x_min":0,"x_max":556,"ha":556,"o":"m 495 0 l 495 114 l 207 114 b 311 226 506 355 506 522 b 506 660 409 732 268 732 b 128 732 43 637 43 531 l 43 497 l 175 497 l 175 523 b 175 577 211 618 278 618 b 342 618 374 577 374 519 b 374 443 328 391 40 117 l 40 0 z"},"{":{"x_min":0,"x_max":333,"ha":333,"o":"m 261 732 l 182 732 b 127 732 67 695 67 613 l 67 418 b 67 368 36 355 -4 355 l -4 295 b 36 295 67 282 67 232 l 67 35 b 67 -47 127 -84 182 -84 l 261 -84 l 261 -24 l 230 -24 b 194 -24 177 -7 177 37 l 177 233 b 177 290 146 316 98 324 l 98 326 b 146 334 177 360 177 417 l 177 611 b 177 655 194 672 230 672 l 261 672 z"},"9":{"x_min":0,"x_max":556,"ha":556,"o":"m 388 427 b 354 396 320 368 278 368 b 217 368 174 405 174 485 b 174 568 209 618 278 618 b 352 618 388 584 388 467 z m 55 189 b 65 59 153 -10 278 -10 b 434 -10 520 86 520 240 l 520 482 b 520 636 434 732 278 732 b 114 732 42 628 42 480 b 42 364 107 266 233 266 b 290 266 343 288 388 322 l 388 255 b 388 138 352 104 278 104 b 229 104 189 140 187 189 z"}," ":{"x_min":0,"x_max":278,"ha":278,"o":""},"I":{"x_min":0,"x_max":278,"ha":278,"o":"m 208 0 l 208 722 l 70 722 l 70 0 z"},"H":{"x_min":0,"x_max":611,"ha":611,"o":"m 208 0 l 208 312 l 403 312 l 403 0 l 541 0 l 541 722 l 403 722 l 403 434 l 208 434 l 208 722 l 70 722 l 70 0 z"},"4":{"x_min":0,"x_max":556,"ha":556,"o":"m 110 292 l 315 574 l 317 574 l 317 292 z m 0 306 l 0 190 l 317 190 l 317 0 l 443 0 l 443 190 l 544 190 l 544 292 l 443 292 l 443 722 l 306 722 z"},"~":{"x_min":0,"x_max":600,"ha":600,"o":"m 510 369 b 485 331 459 291 421 291 b 361 291 262 364 187 364 b 115 364 76 317 52 271 l 91 175 b 108 212 134 252 176 252 b 228 252 267 234 303 216 b 338 197 371 179 414 179 b 481 179 517 226 548 271 z"},"D":{"x_min":0,"x_max":556,"ha":556,"o":"m 62 0 l 254 0 b 412 0 500 68 506 250 l 506 472 b 500 654 412 722 254 722 l 62 722 z m 200 600 l 248 600 b 334 600 368 558 368 456 l 368 266 b 368 158 324 122 248 122 l 200 122 z"},"^":{"x_min":0,"x_max":600,"ha":600,"o":"m 169 320 l 300 602 l 429 320 l 548 320 l 354 722 l 246 722 l 52 320 z"},"0":{"x_min":0,"x_max":556,"ha":556,"o":"m 36 240 b 36 86 122 -10 278 -10 b 434 -10 520 86 520 240 l 520 482 b 520 636 434 732 278 732 b 122 732 36 636 36 482 z m 168 467 b 168 584 204 618 278 618 b 352 618 388 584 388 467 l 388 255 b 388 138 352 104 278 104 b 204 104 168 138 168 255 z"},"F":{"x_min":0,"x_max":444,"ha":444,"o":"m 200 0 l 200 312 l 374 312 l 374 434 l 200 434 l 200 600 l 422 600 l 422 722 l 62 722 l 62 0 z"},"`":{"x_min":0,"x_max":278,"ha":278,"o":"m -24 756 l 123 610 l 224 610 l 131 756 z"},"k":{"x_min":0,"x_max":500,"ha":500,"o":"m 192 0 l 192 166 l 255 255 l 347 0 l 480 0 l 344 360 l 469 544 l 328 544 l 194 333 l 192 333 l 192 722 l 66 722 l 66 0 z"},"u":{"x_min":0,"x_max":500,"ha":500,"o":"m 314 544 l 314 133 b 287 109 258 84 232 84 b 198 84 186 108 186 144 l 186 544 l 60 544 l 60 130 b 60 29 100 -10 177 -10 b 229 -10 272 22 318 62 l 318 0 l 440 0 l 440 544 z"},"]":{"x_min":0,"x_max":333,"ha":333,"o":"m 49 722 l 49 662 l 173 662 l 173 -14 l 49 -14 l 49 -74 l 283 -74 l 283 722 z"},"U":{"x_min":0,"x_max":611,"ha":611,"o":"m 70 722 l 70 216 b 70 57 163 -10 305 -10 b 447 -10 541 57 541 216 l 541 722 l 403 722 l 403 217 b 403 148 372 112 305 112 b 238 112 208 148 208 217 l 208 722 z"},"o":{"x_min":0,"x_max":500,"ha":500,"o":"m 50 196 b 50 52 124 -10 250 -10 b 376 -10 450 52 450 196 l 450 348 b 450 492 376 554 250 554 b 124 554 50 492 50 348 z m 176 380 b 176 422 206 444 250 444 b 294 444 324 422 324 380 l 324 164 b 324 122 294 100 250 100 b 206 100 176 122 176 164 z"},"N":{"x_min":0,"x_max":611,"ha":611,"o":"m 196 0 l 196 466 l 198 466 l 409 0 l 541 0 l 541 722 l 415 722 l 415 294 l 413 294 l 221 722 l 70 722 l 70 0 z"},"+":{"x_min":0,"x_max":600,"ha":600,"o":"m 239 333 l 28 333 l 28 211 l 239 211 l 239 0 l 361 0 l 361 211 l 572 211 l 572 333 l 361 333 l 361 544 l 239 544 z"},"G":{"x_min":0,"x_max":556,"ha":556,"o":"m 428 0 l 500 0 l 500 370 l 265 370 l 265 256 l 362 256 l 362 212 b 362 150 330 112 278 112 b 223 112 188 134 188 214 l 188 508 b 188 588 223 610 278 610 b 328 610 362 580 362 487 l 500 487 b 495 651 419 732 278 732 b 144 732 50 668 50 490 l 50 232 b 50 54 144 -10 278 -10 b 330 -10 370 18 407 60 z"},"q":{"x_min":0,"x_max":500,"ha":500,"o":"m 314 123 b 289 96 266 84 238 84 b 204 84 176 106 176 214 l 176 330 b 176 438 204 460 238 460 b 266 460 289 448 314 421 z m 324 544 l 324 478 l 322 478 b 300 512 244 554 188 554 b 90 554 50 478 50 338 l 50 206 b 50 66 90 -10 188 -10 b 222 -10 254 6 314 50 l 314 -192 l 440 -192 l 440 544 z"},"d":{"x_min":0,"x_max":500,"ha":500,"o":"m 314 123 b 289 96 266 84 238 84 b 204 84 176 106 176 214 l 176 330 b 176 438 204 460 238 460 b 266 460 289 448 314 421 z m 440 0 l 440 722 l 314 722 l 314 494 b 254 538 222 554 188 554 b 90 554 50 478 50 338 l 50 206 b 50 66 90 -10 188 -10 b 244 -10 300 32 322 66 l 324 66 l 324 0 z"},"1":{"x_min":0,"x_max":556,"ha":556,"o":"m 235 0 l 361 0 l 361 732 l 282 732 b 248 688 230 652 124 631 l 124 552 l 235 552 z"},"5":{"x_min":0,"x_max":556,"ha":556,"o":"m 35 207 b 35 98 92 -10 272 -10 b 445 -10 514 91 514 258 b 514 406 461 502 307 502 b 254 502 214 485 176 458 l 176 608 l 479 608 l 479 722 l 62 722 l 62 344 l 171 344 b 196 378 232 400 277 400 b 352 400 382 350 382 261 b 382 160 356 104 270 104 b 205 104 164 140 167 207 z"}}}
